<?xml version="1.0" encoding="utf-8"?>
<svg version="1.1" xmlns:xlink="http://www.w3.org/1999/xlink" width="95px" height="95px" xmlns="http://www.w3.org/2000/svg">
  <g transform="matrix(1 0 0 1 -85 -5195 )">
    <path d="M 66.37276785714286 83.57561383928572  C 72.20424107142857 80.48316592261905  76.99311755952382 76.28627232142857  80.73939732142857 70.98493303571428  C 79.96186755952382 65.50688244047619  78.41564360119048 60.956566220238095  76.10072544642857 57.333984375  C 73.78580729166667 53.711402529761905  70.5254836309524 51.61737351190475  66.31975446428572 51.05189732142856  C 63.95182291666667 53.66722470238094  61.133277529761905 55.70824032738094  57.86411830357142 57.17494419642856  C 54.59495907738096 58.64164806547619  51.14025297619048 59.375  47.5 59.375  C 43.859747023809526 59.375  40.40504092261905 58.64164806547619  37.13588169642857 57.17494419642856  C 33.8667224702381 55.70824032738094  31.048177083333336 53.66722470238094  28.68024553571429 51.05189732142856  C 24.474516369047617 51.61737351190475  21.214192708333336 53.711402529761905  18.89927455357143 57.333984375  C 16.584356398809526 60.956566220238095  15.038132440476192 65.50688244047619  14.260602678571429 70.98493303571428  C 18.00688244047619 76.28627232142857  22.79575892857143 80.48316592261905  28.627232142857142 83.57561383928572  C 34.45870535714286 86.66806175595238  40.74962797619048 88.21428571428572  47.5 88.21428571428572  C 54.250372023809526 88.21428571428572  60.54129464285714 86.66806175595238  66.37276785714286 83.57561383928572  Z M 61.893136160714285 48.321707589285715  C 65.869140625 44.345703125  67.85714285714286 39.54799107142858  67.85714285714286 33.92857142857142  C 67.85714285714286 28.30915178571428  65.869140625 23.511439732142858  61.893136160714285 19.535435267857142  C 57.91713169642858 15.559430803571423  53.11941964285714 13.571428571428577  47.5 13.571428571428577  C 41.88058035714286 13.571428571428577  37.08286830357143 15.559430803571423  33.106863839285715 19.535435267857142  C 29.130859375 23.511439732142858  27.142857142857142 28.30915178571428  27.142857142857142 33.92857142857142  C 27.142857142857142 39.54799107142858  29.130859375 44.345703125  33.106863839285715 48.321707589285715  C 37.08286830357143 52.29771205357144  41.88058035714286 54.285714285714285  47.5 54.285714285714285  C 53.11941964285714 54.285714285714285  57.91713169642858 52.29771205357144  61.893136160714285 48.321707589285715  Z M 91.23604910714286 29.05133928571428  C 93.74534970238096 34.91815476190475  95 41.06770833333333  95 47.5  C 95 53.93229166666666  93.74534970238096 60.07300967261904  91.23604910714286 65.92215401785714  C 88.72674851190477 71.77129836309524  85.3603980654762 76.82524181547619  81.13699776785714 81.083984375  C 76.9135974702381 85.3427269345238  71.86848958333334 88.72674851190476  66.00167410714286 91.23604910714286  C 60.13485863095239 93.74534970238095  53.96763392857142 95  47.5 95  C 41.067708333333336 95  34.918154761904766 93.74534970238095  29.05133928571429 91.23604910714286  C 23.18452380952381 88.72674851190476  18.130580357142858 85.3515625  13.889508928571429 81.11049107142857  C 9.6484375 76.86941964285714  6.273251488095238 71.81547619047619  3.763950892857143 65.94866071428572  C 1.2546502976190474 60.081845238095234  0 53.93229166666666  0 47.5  C 0 41.06770833333333  1.2546502976190474 34.91815476190475  3.763950892857143 29.05133928571428  C 6.273251488095238 23.1845238095238  9.6484375 18.130580357142858  13.889508928571429 13.889508928571423  C 18.130580357142858 9.6484375  23.18452380952381 6.2732514880952355  29.05133928571429 3.7639508928571415  C 34.918154761904766 1.254650297619047  41.067708333333336 0  47.5 0  C 53.93229166666667 0  60.08184523809525 1.254650297619047  65.94866071428572 3.7639508928571415  C 71.8154761904762 6.2732514880952355  76.86941964285714 9.6484375  81.11049107142857 13.889508928571423  C 85.35156250000001 18.130580357142858  88.72674851190477 23.1845238095238  91.23604910714286 29.05133928571428  Z " fill-rule="nonzero" fill="#333333" stroke="none" transform="matrix(1 0 0 1 85 5195 )" />
  </g>
</svg>