<?xml version="1.0" encoding="utf-8"?>
<svg version="1.1" xmlns:xlink="http://www.w3.org/1999/xlink" width="42px" height="48px" xmlns="http://www.w3.org/2000/svg">
  <g transform="matrix(1 0 0 1 -110 -600 )">
    <path d="M 41.72109375 34.703125  C 41.90703125 36.276041666666664  42 37.947916666666664  42 39.71875  C 42 41.989583333333336  41.31640625 43.9375  39.94921875 45.5625  C 38.58203125 47.1875  36.9359375 48  35.010937500000004 48  L 6.9890625 48  C 5.0640625 48  3.4179687500000004 47.1875  2.0507812500000004 45.5625  C 0.6835937500000002 43.9375  0 41.989583333333336  0 39.71875  C 0 37.947916666666664  0.09296875000000021 36.276041666666664  0.27890625000000024 34.703125  C 0.4648437500000002 33.13020833333333  0.8093750000000002 31.546875  1.3125000000000002 29.953125  C 1.8156250000000005 28.359375  2.4554687500000005 26.994791666666668  3.23203125 25.859375000000004  C 4.008593750000001 24.72395833333333  5.0367187499999995 23.796875  6.31640625 23.078125  C 7.59609375 22.359375  9.067187500000001 22  10.7296875 22  C 13.595312500000002 24.666666666666664  17.018750000000004 26.000000000000004  21 26.000000000000004  C 24.981250000000006 26.000000000000004  28.404687500000005 24.666666666666664  31.2703125 22  C 32.932812500000004 22  34.40390625 22.359375  35.68359375 23.078125  C 36.96328125 23.796875  37.991406250000004 24.72395833333333  38.76796875 25.859375000000004  C 39.544531250000006 26.994791666666668  40.184375 28.359375  40.6875 29.953125  C 41.190625000000004 31.546875  41.53515625 33.13020833333333  41.72109375 34.703125  Z M 29.90859375 3.515625  C 32.36953125 5.859375  33.6 8.687500000000002  33.6 12  C 33.6 15.312499999999998  32.36953125 18.140625  29.90859375 20.484375  C 27.44765625 22.828125  24.478125 24  21 24  C 17.521874999999998 24  14.55234375 22.828125  12.09140625 20.484375  C 9.63046875 18.140625  8.4 15.312499999999998  8.4 12  C 8.4 8.687500000000002  9.63046875 5.859375  12.09140625 3.515625  C 14.55234375 1.171875  17.521874999999998 0  21 0  C 24.478125 0  27.44765625 1.171875  29.90859375 3.515625  Z " fill-rule="nonzero" fill="#333333" stroke="none" transform="matrix(1 0 0 1 110 600 )" />
  </g>
</svg>