<?xml version="1.0" encoding="utf-8"?>
<svg version="1.1" xmlns:xlink="http://www.w3.org/1999/xlink" width="65px" height="75px" xmlns="http://www.w3.org/2000/svg">
  <g transform="matrix(1 0 0 1 -31 -968 )">
    <path d="M 48.91927083333333 2.845982142857145  L 62.12239583333333 15.904017857142854  C 62.91232638888889 16.68526785714285  63.58940972222223 17.74553571428572  64.15364583333333 19.084821428571427  C 64.71788194444444 20.424107142857146  65 21.65178571428571  65 22.767857142857146  L 65 70.98214285714286  C 65 72.09821428571429  64.60503472222221 73.046875  63.81510416666667 73.828125  C 63.02517361111112 74.609375  62.06597222222223 75  60.9375 75  L 4.0625 75  C 2.934027777777778 75  1.974826388888889 74.609375  1.1848958333333335 73.828125  C 0.39496527777777773 73.046875  0 72.09821428571429  0 70.98214285714286  L 0 4.017857142857145  C 0 2.901785714285712  0.39496527777777773 1.9531249999999973  1.1848958333333335 1.171875  C 1.974826388888889 0.3906250000000028  2.934027777777778 0  4.0625 0  L 41.97916666666667 0  C 43.10763888888889 0  44.34895833333333 0.2790178571428603  45.703125 0.8370535714285726  C 47.05729166666667 1.395089285714285  48.12934027777778 2.0647321428571397  48.91927083333333 2.845982142857145  Z M 45.068359375 6.612723214285718  C 44.72981770833333 6.277901785714282  44.15147569444445 5.970982142857134  43 5.691964285714282  L 43 22  L 59.24479166666667 22  C 58.96267361111112 20.619419642857135  58.65234375 20.04743303571428  58.31380208333333 19.712611607142854  L 45.068359375 6.612723214285718  Z M 6 69  L 59 69  L 59 27  L 41.97916666666667 27  C 40.85069444444444 26.78571428571428  39.89149305555556 26.395089285714278  39.1015625 25.61383928571428  C 38.31163194444444 24.832589285714285  37.91666666666667 23.883928571428562  38 22.767857142857146  L 38 6  L 6 6  L 6 69  Z M 31.653645833333336 34.86328125  C 33.20529513888889 39.43917410714285  35.26475694444444 42.75948660714286  37.83203125 44.82421875  C 38.763020833333336 45.54966517857143  39.94791666666667 46.33091517857143  41.38671875 47.16796875  C 43.05121527777778 46.97265624999999  44.70160590277778 46.875  46.337890625 46.875  C 50.48502604166667 46.875  52.98177083333333 47.55859374999999  53.828125 48.92578125  C 54.27951388888889 49.53962053571428  54.30772569444445 50.26506696428571  53.91276041666667 51.10212053571429  C 53.91276041666667 51.13002232142857  53.89865451388889 51.15792410714285  53.87044270833333 51.185825892857146  L 53.78580729166667 51.26953125  L 53.78580729166667 51.31138392857143  C 53.61653645833333 52.371651785714285  52.61501736111112 52.90178571428571  50.78125 52.90178571428571  C 49.42708333333333 52.90178571428571  47.80490451388889 52.62276785714285  45.91471354166667 52.064732142857146  C 44.02452256944445 51.50669642857142  42.19075520833333 50.767299107142854  40.41341145833333 49.84654017857143  C 34.17860243055556 50.51618303571429  28.649088541666664 51.67410714285713  23.824869791666664 53.3203125  C 19.508463541666664 60.63058035714286  16.094835069444446 64.28571428571429  13.583984375 64.28571428571429  C 13.160807291666668 64.28571428571429  12.76584201388889 64.18805803571429  12.399088541666668 63.99274553571429  L 11.383463541666668 63.490513392857146  C 11.355251736111112 63.46261160714285  11.270616319444445 63.39285714285715  11.129557291666668 63.28125  C 10.847439236111112 63.00223214285714  10.762803819444445 62.49999999999999  10.875651041666668 61.77455357142857  C 11.129557291666668 60.65848214285714  11.919487847222223 59.38197544642857  13.245442708333332 57.945033482142854  C 14.571397569444445 56.50809151785715  16.433376736111114 55.161830357142854  18.831380208333336 53.90625  C 19.226345486111114 53.65513392857143  19.550781250000004 53.73883928571429  19.8046875 54.15736607142857  C 19.861111111111114 54.21316964285714  19.889322916666664 54.26897321428571  19.889322916666664 54.32477678571429  C 21.35633680555556 51.95312499999999  22.86566840277778 49.204799107142854  24.417317708333336 46.079799107142854  C 26.335720486111114 42.28515624999999  27.802734375 38.63002232142857  28.818359375 35.11439732142857  C 28.141276041666664 32.82645089285714  27.711046006944446 30.60128348214285  27.527669270833336 28.43889508928572  C 27.344292534722225 26.276506696428566  27.43598090277778 24.497767857142858  27.802734375 23.102678571428573  C 28.113064236111114 21.98660714285714  28.70551215277778 21.428571428571427  29.580078125 21.428571428571427  L 30.46875 21.428571428571427  L 30.511067708333336 21.428571428571427  C 31.159939236111114 21.428571428571427  31.653645833333336 21.637834821428573  31.9921875 22.056361607142854  C 32.50000000000001 22.642299107142854  32.62695312500001 23.590959821428562  32.373046875 24.90234375  C 32.31662326388889 25.06975446428572  32.26019965277778 25.18136160714285  32.203776041666664 25.237165178571427  C 32.23198784722223 25.32087053571428  32.24609375 25.432477678571423  32.24609375 25.571986607142854  L 32.24609375 26.82756696428572  C 32.18967013888889 30.259486607142854  31.9921875 32.938058035714285  31.653645833333336 34.86328125  Z M 15.5517578125 58.92857142857143  C 14.522026909722223 60.15624999999999  13.823784722222223 61.18861607142857  13.45703125 62.025669642857146  C 14.92404513888889 61.35602678571429  16.856553819444446 59.151785714285715  19.254557291666664 55.41294642857143  C 17.815755208333336 56.52901785714286  16.58148871527778 57.70089285714286  15.5517578125 58.92857142857143  Z M 30.299479166666664 23.4375  L 30.299479166666664 23.521205357142854  C 29.876302083333336 24.693080357142854  29.84809027777778 26.53459821428572  30.21484375 29.045758928571427  C 30.24305555555556 28.850446428571423  30.341796875 28.236607142857135  30.511067708333336 27.204241071428573  C 30.511067708333336 27.12053571428572  30.60980902777778 26.520647321428562  30.807291666666664 25.404575892857146  C 30.835503472222225 25.292968749999993  30.891927083333336 25.18136160714285  30.9765625 25.06975446428572  C 30.948350694444446 25.041852678571423  30.934244791666664 25.013950892857135  30.934244791666664 24.986049107142854  C 30.906032986111114 24.930245535714278  30.891927083333336 24.88839285714285  30.891927083333336 24.860491071428573  C 30.86371527777778 24.246651785714285  30.680338541666664 23.74441964285714  30.341796875 23.353794642857146  C 30.341796875 23.381696428571423  30.327690972222225 23.40959821428571  30.299479166666664 23.4375  Z M 26.956380208333336 47.71205357142857  C 26.110026041666664 49.27455357142857  25.475260416666664 50.43247767857143  25.052083333333336 51.185825892857146  C 28.860677083333336 49.67912946428571  32.86675347222223 48.549107142857146  37.0703125 47.79575892857143  C 37.01388888888889 47.76785714285714  36.83051215277778 47.63532366071428  36.52018229166667 47.398158482142854  C 36.20985243055556 47.16099330357143  35.98415798611112 46.97265624999999  35.84309895833333 46.83314732142857  C 33.69900173611112 44.96372767857143  31.90755208333334 42.50837053571428  30.46875 39.467075892857146  C 29.70703125 41.866629464285715  28.536241319444446 44.614955357142854  26.956380208333336 47.71205357142857  Z M 52.47395833333333 50.64174107142857  C 52.47395833333333 50.613839285714285  52.44574652777778 50.57198660714285  52.38932291666667 50.51618303571429  C 51.71223958333333 49.84654017857143  49.73741319444445 49.51171875  46.46484375 49.51171875  C 48.60894097222223 50.292968749999986  50.35807291666667 50.68359375  51.71223958333333 50.68359375  C 52.10720486111112 50.68359375  52.36111111111112 50.669642857142854  52.47395833333333 50.64174107142857  Z " fill-rule="nonzero" fill="#000000" stroke="none" transform="matrix(1 0 0 1 31 968 )" />
  </g>
</svg>