<?xml version="1.0" encoding="utf-8"?>
<svg version="1.1" xmlns:xlink="http://www.w3.org/1999/xlink" width="50px" height="50px" viewBox="108 707  50 50" xmlns="http://www.w3.org/2000/svg">
  <path d="M 108.5 717  A 9.5 9.5 0 0 1 118 707.5 L 148 707.5  A 9.5 9.5 0 0 1 157.5 717 L 157.5 747  A 9.5 9.5 0 0 1 148 756.5 L 118 756.5  A 9.5 9.5 0 0 1 108.5 747 L 108.5 717  Z " fill-rule="nonzero" fill="#ffffff" stroke="none" />
  <path d="M 108.5 717  A 9.5 9.5 0 0 1 118 707.5 L 148 707.5  A 9.5 9.5 0 0 1 157.5 717 L 157.5 747  A 9.5 9.5 0 0 1 148 756.5 L 118 756.5  A 9.5 9.5 0 0 1 108.5 747 L 108.5 717  Z " stroke-width="1" stroke="#797979" fill="none" />
  <path d="M 118.71428571428572 732  L 129.42857142857142 742.7142857142858  L 147.28571428571428 717.7142857142857  " stroke-width="10.714285714285715" stroke="#797979" fill="none" />
</svg>