<?xml version="1.0" encoding="utf-8"?>
<!-- Generator: Adobe Illustrator 26.5.0, SVG Export Plug-In . SVG Version: 6.00 Build 0)  -->
<svg version="1.1" id="Camada_1" xmlns="http://www.w3.org/2000/svg" xmlns:xlink="http://www.w3.org/1999/xlink" x="0px" y="0px"
	 viewBox="0 0 283.5 73.6" style="enable-background:new 0 0 283.5 73.6;" xml:space="preserve">
<style type="text/css">
	.st0{fill:#1D1D1B;}
	.st1{fill:#4A39A4;}
	.st2{fill:#611E9B;}
	.st3{fill:#3253AD;}
</style>
<g id="Camada_2_00000003105734064934446860000013162536807711257228_">
	<g id="Camada_3">
	</g>
	<g>
		<g>
			<path class="st0" d="M116.7,30.7c1.7,0,3.2,0.3,4.4,1s2.2,1.7,2.9,3c0.7,1.3,1.1,3,1.1,5V52h-2V39.8c0-2.4-0.6-4.2-1.7-5.4
				c-1.2-1.2-2.8-1.9-4.9-1.9c-1.6,0-3,0.3-4.1,1c-1.2,0.7-2.1,1.6-2.7,2.8c-0.6,1.2-0.9,2.7-0.9,4.4V52h-2V39.8
				c0-2.4-0.6-4.2-1.7-5.4c-1.2-1.2-2.8-1.9-4.9-1.9c-1.6,0-3,0.3-4.1,1c-1.2,0.7-2.1,1.6-2.7,2.8c-0.6,1.2-0.9,2.7-0.9,4.4V52h-2
				V30.8h1.9v5.8L92.1,36c0.6-1.6,1.7-2.9,3.1-3.9s3.2-1.4,5.3-1.4c2.1,0,3.9,0.5,5.3,1.6c1.4,1.1,2.4,2.6,2.7,4.8l-0.7-0.3
				c0.6-1.8,1.6-3.3,3.2-4.4C112.6,31.2,114.5,30.7,116.7,30.7z"/>
			<path class="st0" d="M142.1,52.2c-2.1,0-4-0.5-5.6-1.4c-1.6-0.9-2.9-2.2-3.9-3.8c-0.9-1.6-1.4-3.5-1.4-5.6c0-2.1,0.4-4,1.3-5.6
				s2.1-2.9,3.6-3.8c1.5-0.9,3.3-1.4,5.2-1.4s3.6,0.4,5.2,1.3s2.7,2.1,3.6,3.8s1.3,3.5,1.3,5.6c0,0.1,0,0.2,0,0.3c0,0.1,0,0.2,0,0.3
				h-18.7v-1.6h17.6l-0.8,0.8c0-1.6-0.3-3.1-1-4.4c-0.7-1.3-1.7-2.3-2.9-3.1c-1.2-0.7-2.6-1.1-4.2-1.1c-1.6,0-3,0.4-4.2,1.1
				s-2.2,1.8-2.9,3.1c-0.7,1.3-1.1,2.8-1.1,4.5v0.4c0,1.7,0.4,3.3,1.1,4.6c0.8,1.3,1.8,2.4,3.2,3.1c1.4,0.7,2.9,1.1,4.6,1.1
				c1.4,0,2.6-0.2,3.8-0.7c1.2-0.5,2.2-1.2,3-2.2l1.2,1.3c-0.9,1.1-2.1,2-3.5,2.6C145.2,51.9,143.7,52.2,142.1,52.2z"/>
			<path class="st0" d="M157.7,52V21.9h2V52H157.7z"/>
			<path class="st0" d="M176.5,52.2c-2,0-3.8-0.5-5.4-1.4s-2.8-2.2-3.8-3.8c-0.9-1.6-1.4-3.5-1.4-5.6c0-2.1,0.5-4,1.4-5.6
				s2.2-2.9,3.8-3.8s3.4-1.4,5.4-1.4s3.8,0.5,5.4,1.4c1.6,0.9,2.9,2.2,3.8,3.8s1.4,3.5,1.4,5.6c0,2.1-0.5,3.9-1.4,5.6
				c-0.9,1.6-2.2,2.9-3.8,3.8C180.4,51.7,178.6,52.2,176.5,52.2z M176.5,50.3c1.6,0,3.1-0.4,4.4-1.1s2.3-1.8,3-3.1s1.1-2.9,1.1-4.7
				c0-1.8-0.4-3.3-1.1-4.7c-0.7-1.3-1.7-2.4-3-3.1c-1.3-0.7-2.8-1.1-4.4-1.1s-3.1,0.4-4.4,1.1c-1.3,0.7-2.3,1.8-3,3.1
				c-0.7,1.3-1.1,2.9-1.1,4.7c0,1.8,0.4,3.3,1.1,4.7s1.8,2.4,3,3.1C173.4,50,174.9,50.3,176.5,50.3z"/>
			<path class="st0" d="M201.5,52.2c-2,0-3.8-0.4-5.3-1.4c-1.6-0.9-2.8-2.2-3.8-3.8s-1.4-3.5-1.4-5.6c0-2.1,0.5-4,1.4-5.6
				s2.2-2.9,3.8-3.8c1.6-0.9,3.4-1.4,5.3-1.4c1.9,0,3.6,0.4,5,1.3c1.5,0.9,2.7,2.1,3.6,3.7c0.9,1.6,1.3,3.5,1.3,5.8
				c0,2.2-0.4,4.1-1.3,5.7c-0.9,1.6-2.1,2.9-3.6,3.7C205.1,51.7,203.4,52.2,201.5,52.2z M201.6,50.3c1.6,0,3.1-0.4,4.4-1.1
				c1.3-0.7,2.3-1.8,3-3.1c0.7-1.4,1.1-2.9,1.1-4.7c0-1.8-0.4-3.3-1.1-4.7s-1.8-2.4-3-3.1c-1.3-0.7-2.7-1.1-4.4-1.1
				s-3.1,0.4-4.4,1.1c-1.3,0.7-2.3,1.8-3,3.1c-0.7,1.3-1.1,2.9-1.1,4.7c0,1.8,0.4,3.3,1.1,4.7s1.8,2.4,3,3.1
				C198.6,50,200,50.3,201.6,50.3z M210.2,52v-6.9l0.4-3.7l-0.4-3.7V21.9h2V52L210.2,52L210.2,52z"/>
			<path class="st0" d="M221.7,25.7c-0.5,0-0.9-0.2-1.2-0.5s-0.5-0.7-0.5-1.1c0-0.5,0.2-0.8,0.5-1.2c0.3-0.3,0.7-0.5,1.2-0.5
				c0.5,0,0.9,0.2,1.2,0.5c0.3,0.3,0.5,0.7,0.5,1.1c0,0.5-0.2,0.9-0.5,1.2S222.2,25.7,221.7,25.7z M220.7,52V30.8h2V52H220.7z"/>
			<path class="st1" d="M231.3,52V23.6h4.1V52H231.3z M234.8,45.1l-0.2-4.9l16.1-16.6h4.6l-12.4,13.1l-2.3,2.5L234.8,45.1z
				 M251.4,52l-11.6-13.5l2.7-3L256.1,52H251.4z"/>
			<path class="st0" d="M266.1,52.2c-1.6,0-2.9-0.2-4.1-0.8s-2-1.2-2.6-2.1c-0.6-0.9-0.9-2-0.9-3.2c0-1.1,0.2-2.1,0.8-2.9
				s1.3-1.6,2.5-2.1s2.7-0.8,4.7-0.8h7.8v1.6h-7.7c-2.2,0-3.7,0.4-4.6,1.2c-0.9,0.8-1.3,1.8-1.3,3c0,1.4,0.5,2.4,1.5,3.2
				s2.5,1.2,4.3,1.2c1.8,0,3.3-0.4,4.5-1.2c1.2-0.8,2.1-2,2.7-3.5l0.6,1.4c-0.6,1.5-1.5,2.8-2.9,3.7C270,51.7,268.3,52.2,266.1,52.2
				z M273.8,52v-4.8l-0.1-0.7v-7.9c0-2-0.5-3.5-1.6-4.5s-2.6-1.5-4.7-1.5c-1.5,0-2.8,0.2-4.1,0.8c-1.3,0.5-2.3,1.1-3.2,1.9l-1-1.5
				c1-0.9,2.3-1.7,3.8-2.2c1.5-0.5,3-0.8,4.7-0.8c2.6,0,4.6,0.7,6,2c1.4,1.3,2.1,3.3,2.1,5.9V52H273.8z"/>
		</g>
	</g>
</g>
<g id="Camada_1_00000160185725961481287140000012088355648581961106_">
	<path class="st0" d="M59.8,41.5L59.8,41.5c-2.7,0-4.8-2.2-4.8-4.8V0h9.7v36.7C64.6,39.4,62.5,41.5,59.8,41.5z"/>
	<path class="st0" d="M34.6,41.5L34.6,41.5c-2.7,0-4.8-2.2-4.8-4.8V0h9.7v36.7C39.4,39.4,37.3,41.5,34.6,41.5z"/>
	<path class="st2" d="M26.6,36.9V0h-6.8c-5.2,0-9.4,4.2-9.4,7.4v54.7c0,7.2,4.2,11.4,9.4,11.4h12.7V43.8
		C29.2,43.3,26.6,40.4,26.6,36.9z"/>
	<path class="st1" d="M51.8,36.9V0h-9.2v36.9c0,3.5-2.6,6.4-6,6.9v29.7h21.2V43.8C54.4,43.3,51.8,40.4,51.8,36.9z"/>
	<path class="st3" d="M74.5,0h-6.8v36.9c0,3.5-2.6,6.4-6,6.9v29.7h12.8c5.2,0,9.4-4.2,9.4-11.4V7.5C84,4.3,79.8,0,74.5,0z"/>
</g>
</svg>
