<?xml version="1.0" encoding="utf-8"?>
<svg version="1.1" xmlns:xlink="http://www.w3.org/1999/xlink" width="129px" height="129px" xmlns="http://www.w3.org/2000/svg">
  <g transform="matrix(1 0 0 1 -560 -3832 )">
    <path d="M 79.11328125 79.11328125  C 85.90955528846155 72.31700721153845  89.3076923076923 64.13822115384615  89.3076923076923 54.57692307692308  C 89.3076923076923 45.01562499999999  85.90955528846155 36.836838942307686  79.11328125 30.040564903846153  C 72.31700721153847 23.244290865384606  64.13822115384616 19.846153846153847  54.57692307692307 19.846153846153847  C 45.01562500000001 19.846153846153847  36.8368389423077 23.244290865384606  30.040564903846153 30.040564903846153  C 23.244290865384617 36.836838942307686  19.846153846153847 45.01562499999999  19.846153846153847 54.57692307692308  C 19.846153846153847 64.13822115384615  23.244290865384617 72.31700721153845  30.040564903846153 79.11328125  C 36.8368389423077 85.90955528846152  45.01562500000001 89.3076923076923  54.57692307692307 89.3076923076923  C 64.13822115384616 89.3076923076923  72.31700721153847 85.90955528846152  79.11328125 79.11328125  Z M 126.13161057692308 112.09975961538461  C 128.0438701923077 114.01201923076924  129 116.33774038461539  129 119.07692307692308  C 129 121.7644230769231  128.01802884615387 124.09014423076924  126.05408653846155 126.05408653846155  C 124.09014423076924 128.01802884615384  121.7644230769231 129  119.07692307692308 129  C 116.2860576923077 129  113.96033653846155 128.01802884615384  112.09975961538461 126.05408653846155  L 85.50901442307692 99.54086538461539  C 76.2578125 105.94951923076924  65.94711538461539 109.15384615384615  54.57692307692307 109.15384615384615  C 47.18629807692308 109.15384615384615  40.11868990384615 107.7196514423077  33.37409855769231 104.85126201923077  C 26.629507211538463 101.98287259615385  20.815204326923077 98.10667067307692  15.931189903846155 93.22265625  C 11.047175480769232 88.33864182692308  7.170973557692309 82.5243389423077  4.302584134615384 75.77974759615385  C 1.4341947115384617 69.03515625  0 61.967548076923066  0 54.57692307692308  C 0 47.18629807692306  1.4341947115384617 40.11868990384615  4.302584134615384 33.37409855769231  C 7.170973557692309 26.62950721153846  11.047175480769232 20.815204326923084  15.931189903846155 15.931189903846153  C 20.815204326923077 11.047175480769237  26.629507211538463 7.170973557692306  33.37409855769231 4.302584134615389  C 40.11868990384615 1.4341947115384581  47.18629807692308 0  54.57692307692307 0  C 61.96754807692308 0  69.03515625 1.4341947115384581  75.77974759615385 4.302584134615389  C 82.5243389423077 7.170973557692306  88.33864182692308 11.047175480769237  93.22265625 15.931189903846153  C 98.10667067307692 20.815204326923084  101.98287259615385 26.62950721153846  104.85126201923076 33.37409855769231  C 107.7196514423077 40.11868990384615  109.15384615384615 47.18629807692306  109.15384615384615 54.57692307692308  C 109.15384615384615 65.94711538461537  105.94951923076924 76.25781249999999  99.54086538461539 85.50901442307692  L 126.13161057692308 112.09975961538461  Z " fill-rule="nonzero" fill="#333333" stroke="none" transform="matrix(1 0 0 1 560 3832 )" />
  </g>
</svg>