<?xml version="1.0" encoding="utf-8"?>
<svg version="1.1" xmlns:xlink="http://www.w3.org/1999/xlink" width="67px" height="70px" xmlns="http://www.w3.org/2000/svg">
  <g transform="matrix(1 0 0 1 -623 -986 )">
    <path d="M 65.31589673913044 30.956354300385108  C 66.43863224637681 32.00470688917415  67 33.35258878904578  67 35  C 67 36.61745827984596  66.43863224637681 37.980316645271714  65.31589673913044 39.08857509627728  L 35.684782608695656 68.33761232349165  C 34.50135869565218 69.44587077449722  33.12069746376812 70  31.542798913043477 70  C 29.99524456521739 70  28.62975543478261 69.44587077449722  27.44633152173913 68.33761232349165  L 24.032608695652172 64.96790757381258  C 22.879528985507246 63.82969619169876  22.30298913043478 62.46683782627299  22.30298913043478 60.8793324775353  C 22.30298913043478 59.29182712879761  22.879528985507246 57.92896876337184  24.032608695652172 56.790757381258025  L 37.36888586956522 43  L 5.325407608695652 43  C 3.747509057971015 43.62644415917844  2.4654664855072466 43.064826700898585  1.479279891304348 41.9415917843389  C 0.4930932971014492 40.8183568677792  0 39.46298673513051  0 37.87548138639281  L 0 32.12451861360719  C 0 30.537013264869486  0.4930932971014492 29.1816431322208  1.479279891304348 28.058408215661103  C 2.4654664855072466 26.93517329910141  3.747509057971015 26.37355584082157  5.325407608695652 27  L 37.36888586956522 27  L 24.032608695652172 13.164313222079592  C 22.879528985507246 12.086007702182284  22.30298913043478 10.738125802310659  22.30298913043478 9.120667522464698  C 22.30298913043478 7.5032092426187456  22.879528985507246 6.155327342747112  24.032608695652172 5.077021822849805  L 27.44633152173913 1.7073170731707332  C 28.599411231884062 0.5691056910569059  29.96490036231884 0  31.542798913043477 0  C 33.15104166666667 0  34.531702898550726 0.5691056910569059  35.684782608695656 1.7073170731707332  L 65.31589673913044 30.956354300385108  Z " fill-rule="nonzero" fill="#333333" stroke="none" transform="matrix(1 0 0 1 623 986 )" />
  </g>
</svg>